<?xml version="1.0" encoding="utf-8"?>
<!-- Generator: Adobe Illustrator 23.0.3, SVG Export Plug-In . SVG Version: 6.00 Build 0)  -->
<svg version="1.1" id="Layer_1" xmlns="http://www.w3.org/2000/svg" xmlns:xlink="http://www.w3.org/1999/xlink" x="0px" y="0px"
	 viewBox="0 0 1639 558" style="enable-background:new 0 0 1639 558;" xml:space="preserve">
<style type="text/css">
	.st0{fill:none;}
	.st1{fill:#333333;}
	.st2{fill:#25AAE1;stroke:#333333;stroke-width:2;stroke-miterlimit:10;}
</style>
<g>
	<rect x="172.06" y="395" class="st0" width="1309.94" height="103.62"/>
	<path class="st1" d="M194.36,412.02h-21.91v-12.91h59.65v12.91H210.2v55.55h-15.84V412.02z"/>
	<path class="st1" d="M303.4,399.11v68.46h-15.84V439.5h-31.1v28.07h-15.84v-68.46h15.84v26.99h31.1v-26.99H303.4z"/>
	<path class="st1" d="M372.65,454.85v12.71h-53v-68.46h51.73v12.71h-35.99v14.86h31.78v12.32h-31.78v15.84H372.65z"/>
	<path class="st1" d="M408.64,433.34c0-20.34,15.84-35.4,37.46-35.4c21.51,0,37.45,14.96,37.45,35.4s-15.94,35.4-37.45,35.4
		C424.48,468.74,408.64,453.68,408.64,433.34z M467.51,433.34c0-13.01-9.19-21.91-21.42-21.91s-21.42,8.9-21.42,21.91
		s9.19,21.91,21.42,21.91S467.51,446.35,467.51,433.34z"/>
	<path class="st1" d="M558.27,399.11v68.46h-13.01L511.13,426v41.56h-15.65v-68.46h13.1l34.03,41.56v-41.56H558.27z"/>
	<path class="st1" d="M574.5,399.11h15.84v55.55h34.33v12.91H574.5V399.11z"/>
	<path class="st1" d="M633.58,399.11h15.84v68.46h-15.84V399.11z"/>
	<path class="st1" d="M728.44,399.11v68.46h-13.01L681.3,426v41.56h-15.65v-68.46h13.1l34.03,41.56v-41.56H728.44z"/>
	<path class="st1" d="M797.68,454.85v12.71h-53v-68.46h51.73v12.71h-35.99v14.86h31.78v12.32h-31.78v15.84H797.68z"/>
	<path class="st1" d="M900.76,448.89c0,11.83-9.39,18.68-27.38,18.68h-35.4v-68.46h33.45c17.11,0,25.92,7.14,25.92,17.8
		c0,6.85-3.52,12.13-9.09,15.06C895.87,434.41,900.76,440.28,900.76,448.89z M853.72,411.04v16.14h15.75
		c7.73,0,11.93-2.74,11.93-8.12s-4.21-8.02-11.93-8.02H853.72z M884.82,447.23c0-5.77-4.4-8.51-12.62-8.51h-18.48v16.92h18.48
		C880.42,455.64,884.82,453.09,884.82,447.23z"/>
	<path class="st1" d="M908.49,433.34c0-20.34,15.84-35.4,37.46-35.4c21.51,0,37.46,14.96,37.46,35.4s-15.94,35.4-37.46,35.4
		C924.33,468.74,908.49,453.68,908.49,433.34z M967.36,433.34c0-13.01-9.19-21.91-21.42-21.91c-12.22,0-21.42,8.9-21.42,21.91
		s9.19,21.91,21.42,21.91C958.17,455.24,967.36,446.35,967.36,433.34z"/>
	<path class="st1" d="M991.03,433.34c0-20.34,15.84-35.4,37.46-35.4c21.51,0,37.46,14.96,37.46,35.4s-15.94,35.4-37.46,35.4
		C1006.88,468.74,991.03,453.68,991.03,433.34z M1049.9,433.34c0-13.01-9.19-21.91-21.42-21.91c-12.22,0-21.42,8.9-21.42,21.91
		s9.19,21.91,21.42,21.91C1040.71,455.24,1049.9,446.35,1049.9,433.34z"/>
	<path class="st1" d="M1102.82,440.67l-9.19,9.58v17.31h-15.74v-68.46h15.74v31.98l30.32-31.98h17.6l-28.36,30.51l30.02,37.94
		h-18.48L1102.82,440.67z"/>
	<path class="st1" d="M1173.62,433.34c0-20.63,15.84-35.4,37.16-35.4c11.83,0,21.71,4.3,28.16,12.13l-10.17,9.39
		c-4.6-5.28-10.37-8.02-17.21-8.02c-12.81,0-21.91,9-21.91,21.91s9.09,21.91,21.91,21.91c6.85,0,12.62-2.74,17.21-8.12l10.17,9.39
		c-6.45,7.92-16.33,12.22-28.26,12.22C1189.47,468.74,1173.62,453.97,1173.62,433.34z"/>
	<path class="st1" d="M1249.61,399.11h15.84v55.55h34.33v12.91h-50.17V399.11z"/>
	<path class="st1" d="M1307.22,437.45v-38.33h15.84v37.75c0,13.01,5.67,18.38,15.26,18.38c9.68,0,15.25-5.38,15.25-18.38v-37.75
		h15.65v38.33c0,20.15-11.54,31.29-31,31.29S1307.22,457.59,1307.22,437.45z"/>
	<path class="st1" d="M1447.65,448.89c0,11.83-9.39,18.68-27.38,18.68h-35.4v-68.46h33.45c17.11,0,25.92,7.14,25.92,17.8
		c0,6.85-3.52,12.13-9.09,15.06C1442.76,434.41,1447.65,440.28,1447.65,448.89z M1400.61,411.04v16.14h15.75
		c7.73,0,11.93-2.74,11.93-8.12s-4.21-8.02-11.93-8.02H1400.61z M1431.71,447.23c0-5.77-4.4-8.51-12.62-8.51h-18.48v16.92h18.48
		C1427.31,455.64,1431.71,453.09,1431.71,447.23z"/>
</g>
<g id="Layer_2">
	<g>
		<path class="st2" d="M178.55,89.92h61.61c43.69,0,77.66,6.35,77.66,69.82c0,41.07-20.16,56.38-45.55,62.73
			c26.51,4.85,48.17,20.16,48.17,68.33c0,60.86-36.96,74.68-80.28,74.68h-61.61V89.92z M241.28,214.63c17.55,0,22.4-7.47,22.4-50.41
			c0-49.29-6.35-53.77-23.52-53.77h-8.59v104.17H241.28z M241.28,344.94c17.18,0,23.9-2.99,23.9-57.13
			c0-45.55-5.97-54.51-22.78-54.51h-10.83v111.64H241.28z"/>
	</g>
	<g>
		<path class="st2" d="M346.58,275.25c0-78.41,30.99-94.84,67.96-94.84c35.84,0,67.21,16.06,67.21,94.84
			c0,79.53-30.62,95.21-67.21,95.21C376.82,370.46,346.58,355.9,346.58,275.25z M427.6,276.37c0-71.69-1.87-76.54-13.07-76.54
			c-12.32,0-13.81,4.85-13.81,76.54s1.49,75.8,13.81,75.8C426.11,352.16,427.6,347.31,427.6,276.37z"/>
	</g>
	<g>
		<path class="st2" d="M503.58,215.25c0-78.41,30.99-94.84,67.96-94.84c35.84,0,67.21,16.06,67.21,94.84
			c0,79.53-30.62,95.21-67.21,95.21C533.82,310.46,503.58,295.9,503.58,215.25z M584.6,216.37c0-71.69-1.87-76.54-13.07-76.54
			c-12.32,0-13.81,4.85-13.81,76.54s1.49,75.8,13.81,75.8C583.11,292.16,584.6,287.31,584.6,216.37z"/>
	</g>
	<g>
		<path class="st2" d="M717.69,297.4l-5.23,9.71v59.37h-51.53V90.92h51.53v181.46l50.03-89.98h22.78l-30.99,56.01l36.96,128.07
			h-53.77L717.69,297.4z"/>
	</g>
	<g>
		<path class="st2" d="M858.47,89.92H995.5v20.54h-40.7v255.02h-55.26V110.45h-41.07V89.92z"/>
	</g>
	<g>
		<path class="st2" d="M982.46,288.09c0-51.53,21.66-61.61,62.73-61.61h8.96v-18.67c0-21.66-5.6-28.75-28.75-28.75
			c-10.08,0-18.3,0.37-27.26,1.12v-17.55c14.94-1.87,32.11-3.73,47.05-3.73c35.47,0,59.37,9.33,59.37,47.79v137.78h-50.41v-8.59
			c-7.84,7.47-17.55,10.46-30.62,10.46C1001.13,346.34,982.46,331.78,982.46,288.09z M1054.15,322.82v-80.28h-6.72
			c-7.47,0-14.19,3.73-14.19,41.07c0,35.84,5.6,41.07,13.82,41.07C1049.67,324.68,1051.91,323.94,1054.15,322.82z"/>
	</g>
	<g>
		<path class="st2" d="M1129.94,67.92h53.39v275.56h-53.39V67.92z"/>
	</g>
	<g>
		<path class="st2" d="M1351.96,341.23v-17.55c7.09,0.75,13.07,1.12,20.54,1.12c18.67,0,23.15-5.97,23.15-16.8
			c0-5.23-1.49-10.45-5.97-19.42c-3.36-7.47-8.21-16.43-15.68-29.87c-7.09-13.82-11.95-23.52-14.94-31.74
			c-4.11-10.46-5.23-17.92-5.23-25.02c0-25.02,17.18-44.06,56.38-44.06c15.31,0,23.52,1.87,31.36,3.73v17.55
			c-5.6-0.75-10.45-1.12-17.17-1.12c-16.06,0-19.04,5.97-19.04,16.43c0,4.48,1.12,8.96,5.23,17.55c3.36,7.47,8.96,17.18,16.8,32.48
			c7.47,13.82,12.32,23.9,15.31,31.74c3.73,10.46,4.48,16.8,4.48,23.9c0,28.38-17.92,44.81-54.89,44.81
			C1377.36,344.96,1360.93,342.72,1351.96,341.23z"/>
	</g>
	<g>
		<path class="st2" d="M1260.69,302.4l-5.23,9.71v59.37h-51.53V95.92h51.53v181.46l50.03-89.98h22.78l-30.99,56.01l36.96,128.07
			h-53.77L1260.69,302.4z"/>
	</g>
</g>
<g>
</g>
<g>
</g>
<g>
</g>
<g>
</g>
<g>
</g>
<g>
</g>
<g>
</g>
<g>
</g>
<g>
</g>
<g>
</g>
<g>
</g>
<g>
</g>
<g>
</g>
<g>
</g>
<g>
</g>
</svg>
