<?xml version="1.0" encoding="utf-8"?>
<!-- Generator: Adobe Illustrator 23.0.3, SVG Export Plug-In . SVG Version: 6.00 Build 0)  -->
<svg version="1.1" id="Layer_1" xmlns="http://www.w3.org/2000/svg" xmlns:xlink="http://www.w3.org/1999/xlink" x="0px" y="0px"
	 viewBox="0 0 31 175" style="enable-background:new 0 0 31 175;" xml:space="preserve">
<style type="text/css">
	.st0{fill:#333333;}
</style>
<g>
	<path class="st0" d="M8.68,168.4h5.74v-10.05h4.03v10.05h7.91v5.02H4.65v-16.4h4.03V168.4z"/>
	<path class="st0" d="M22.32,136.81h4.03v16.81H4.65v-16.4h4.03v11.41h4.71v-10.08h3.91v10.08h5.02V136.81z"/>
	<path class="st0" d="M21.7,118.52v10.08l4.65,1.92v5.15L4.65,126v-4.96l21.7-9.71v5.27L21.7,118.52z M17.89,120.1l-8.31,3.44
		l8.31,3.44V120.1z"/>
	<path class="st0" d="M8.74,105.66v6.95H4.65V93.69h4.09v6.95h17.61v5.02H8.74z"/>
	<path class="st0" d="M16.8,91.56H4.65v-5.02h11.97c4.12,0,5.83-1.8,5.83-4.84c0-3.07-1.71-4.84-5.83-4.84H4.65V71.9H16.8
		c6.39,0,9.92,3.66,9.92,9.83C26.73,87.9,23.19,91.56,16.8,91.56z"/>
	<path class="st0" d="M26.35,53.11l-6.05,4.19v0.25v4.37h6.05v5.02H4.65v-9.4c0-5.8,3.01-9.43,7.88-9.43c3.26,0,5.64,1.64,6.85,4.46
		l6.98-4.87V53.11z M8.74,57.83v4.09h7.57v-4.09c0-3.07-1.43-4.62-3.78-4.62C10.14,53.21,8.74,54.76,8.74,57.83z"/>
	<path class="st0" d="M22.32,27.35h4.03v16.8H4.65v-16.4h4.03v11.41h4.71V29.09h3.91v10.08h5.02V27.35z"/>
	<path class="st0" d="M4.65,23.36V13.5c0-7.1,4.28-11.97,10.85-11.97S26.35,6.4,26.35,13.5v9.86H4.65z M22.23,13.75
		c0-4.31-2.57-7.13-6.73-7.13s-6.73,2.82-6.73,7.13v4.59h13.46V13.75z"/>
</g>
<g>
</g>
<g>
</g>
<g>
</g>
<g>
</g>
<g>
</g>
<g>
</g>
<g>
</g>
<g>
</g>
<g>
</g>
<g>
</g>
<g>
</g>
<g>
</g>
<g>
</g>
<g>
</g>
<g>
</g>
</svg>
