<svg id="Layer_1" data-name="Layer 1" xmlns="http://www.w3.org/2000/svg" viewBox="0 0 44.22 299.88"><title>featured</title><path d="M57.53,315.46H14.15c-.18-5.88-.18-12.66-.18-18V286.18H25.19v8.16c0,3.84-.12,8-.18,10,1.68-.06,2.94-.06,4.92-.06h1.86c-.06-1.5-.12-4.44-.18-7.8l-.12-8,10.38.3-.12,7.68c-.06,3.24-.12,6.24-.18,7.8h16Z" transform="translate(-13.97 -15.58)"/><path d="M57.53,263.14c0,5.52,0,10.44-.18,17.58H14.15c-.18-5.88-.18-12.6-.18-17.94V251.5H25.19v8.4c0,3.84-.12,7.92-.18,9.9,1.68-.06,2.94-.06,4.92-.06H31c-.06-1.5-.12-4.62-.18-8l-.12-8,10.38.29L41,261.76c-.06,3.24-.12,6.42-.18,8h1.68c2,0,3.3,0,5,.06-.06-1.92-.12-5.94-.12-9.66v-9.06h10.2Z" transform="translate(-13.97 -15.58)"/><path d="M57.53,218.8,48.83,221c.06,1.8.12,4.14.12,6.66,0,2.28-.06,4.32-.12,6.18l8.7,2.22v12.36L14,233.62V220.54l43.56-14.81Zm-18.06,4.62-5.22,1.38c-3.54.9-7.08,1.86-10.44,2.64v.12c3.42.78,6.72,1.56,10.2,2.46l5.46,1.38Z" transform="translate(-13.97 -15.58)"/><path d="M14,209.2v-35H25.19v3.9c0,3.18-.06,6-.18,8H57.53v11.28H25c.12,2,.18,5,.18,8.1v3.72Z" transform="translate(-13.97 -15.58)"/><path d="M41.39,135c4.56,0,8.82,1,12.06,4.5,2.88,3.12,4.74,7.92,4.74,13.92,0,5.76-1.74,10-4.68,12.72s-6.78,3.54-10.86,3.54H14V158.38H40.79c2.58,0,4.32-.6,5.58-1.74s1.74-3.12,1.74-5.16c0-1.68-.24-3.54-1.56-4.62a7.57,7.57,0,0,0-4.86-1.26H14V135Z" transform="translate(-13.97 -15.58)"/><path d="M57.53,92.14v13.68l-9.48,4.44c-1.8.84-3.48,1.62-5.22,2.4,0,1.38,0,2.58-.06,3.66H57.53v11H14.15c-.12-4-.18-9.24-.18-13.32v-2.88c0-5.94.9-10,3.18-12.84,2.52-3.12,6.36-4.2,10-4.2,5.7,0,11,2.58,13.44,8.28,1.62-1,3.36-2.1,5.16-3.18Zm-32.7,20c0,1.26,0,2.94-.06,4.26,1.44-.06,3.3-.06,5-.06H34c0-1.68,0-2.7-.06-5-.06-2.52-.18-4.26-1-5.1a4.09,4.09,0,0,0-3.06-1c-2.34,0-3.54.6-4.14,1.5s-.84,2.28-.84,4.62Z" transform="translate(-13.97 -15.58)"/><path d="M57.53,69.88c0,5.52,0,10.44-.18,17.58H14.15C14,81.58,14,74.86,14,69.52V58.24H25.19v8.4c0,3.84-.12,7.92-.18,9.9,1.68-.06,2.94-.06,4.92-.06H31c-.06-1.5-.12-4.62-.18-8l-.12-8,10.38.3L41,68.5c-.06,3.24-.12,6.42-.18,8h1.68c2,0,3.3,0,5,.06-.06-1.92-.12-5.94-.12-9.66V57.82h10.2Z" transform="translate(-13.97 -15.58)"/><path d="M57.53,41.8c0,3.18-.06,6.84-.18,9.72H14.15c-.18-3.06-.18-7-.18-10.14V36.22c0-8.34,2.1-12.84,5.46-15.84C23,17.2,28.31,15.58,34,15.58a26.19,26.19,0,0,1,17,5.88c3.72,3.18,6.48,7.92,6.48,15.36Zm-12.66-13c-1.68-1.5-4.44-2.1-8.28-2.1s-7.14.72-9.12,2.58-2.4,4.8-2.4,8v.18c0,1,0,1.8-.06,2.82,1.68-.06,2.94-.06,4.86-.06H42.11c2.1,0,3.54,0,5.4.06-.06-1-.06-1.92-.06-3.18v-.36C47.45,33.58,46.85,30.52,44.87,28.78Z" transform="translate(-13.97 -15.58)"/></svg>